<mxfile host="app.diagrams.net" modified="2020-11-05T15:53:20.420Z" agent="5.0 (Macintosh; Intel Mac OS X 10_15_7) AppleWebKit/537.36 (KHTML, like Gecko) Chrome/86.0.4240.183 Safari/537.36" etag="AnSO8nw5NWtZc3sFjRVv" version="13.8.8" type="github">
  <diagram name="Page-1" id="929967ad-93f9-6ef4-fab6-5d389245f69c">
    <mxGraphModel dx="1298" dy="736" grid="1" gridSize="10" guides="1" tooltips="1" connect="1" arrows="1" fold="1" page="1" pageScale="1.5" pageWidth="1169" pageHeight="826" background="none" math="0" shadow="0">
      <root>
        <mxCell id="0" style=";html=1;" />
        <mxCell id="1" style=";html=1;" parent="0" />
        <mxCell id="1672d66443f91eb5-23" value="Title" style="text;strokeColor=none;fillColor=none;html=1;fontSize=24;fontStyle=1;verticalAlign=middle;align=center;" parent="1" vertex="1">
          <mxGeometry x="120" y="40" width="1510" height="40" as="geometry" />
        </mxCell>
        <mxCell id="JJN54RWJEOPsRqqfcyb3-1" value="&lt;p style=&quot;margin: 0px ; margin-top: 4px ; margin-left: 10px ; text-align: left&quot;&gt;&lt;b&gt;OpenDesk&lt;/b&gt;&lt;/p&gt;" style="html=1;strokeWidth=1;shape=mxgraph.sysml.package;html=1;overflow=fill;whiteSpace=wrap;fillColor=none;gradientColor=none;fontSize=12;align=center;labelX=327.64;" vertex="1" parent="1">
          <mxGeometry x="270" y="970" width="1110" height="940" as="geometry" />
        </mxCell>
        <mxCell id="JJN54RWJEOPsRqqfcyb3-5" value="" style="edgeStyle=orthogonalEdgeStyle;rounded=0;orthogonalLoop=1;jettySize=auto;html=1;" edge="1" parent="1" source="JJN54RWJEOPsRqqfcyb3-3" target="JJN54RWJEOPsRqqfcyb3-4">
          <mxGeometry relative="1" as="geometry" />
        </mxCell>
        <mxCell id="JJN54RWJEOPsRqqfcyb3-3" value="UI" style="outlineConnect=0;fontColor=#232F3E;gradientColor=none;strokeColor=#232F3E;fillColor=#ffffff;dashed=0;verticalLabelPosition=bottom;verticalAlign=top;align=center;html=1;fontSize=12;fontStyle=0;aspect=fixed;shape=mxgraph.aws4.resourceIcon;resIcon=mxgraph.aws4.mobile_client;" vertex="1" parent="1">
          <mxGeometry x="280" y="1200" width="60" height="60" as="geometry" />
        </mxCell>
        <mxCell id="JJN54RWJEOPsRqqfcyb3-7" value="" style="edgeStyle=orthogonalEdgeStyle;rounded=0;orthogonalLoop=1;jettySize=auto;html=1;" edge="1" parent="1" source="JJN54RWJEOPsRqqfcyb3-4">
          <mxGeometry relative="1" as="geometry">
            <mxPoint x="570" y="1330" as="targetPoint" />
          </mxGeometry>
        </mxCell>
        <mxCell id="JJN54RWJEOPsRqqfcyb3-4" value="organisation-service" style="shape=folder;tabWidth=80;tabHeight=20;tabPosition=left;strokeWidth=1;html=1;whiteSpace=wrap;align=center;fontSize=12;fontStyle=1" vertex="1" parent="1">
          <mxGeometry x="490" y="1185" width="160" height="90" as="geometry" />
        </mxCell>
        <mxCell id="JJN54RWJEOPsRqqfcyb3-9" value="" style="edgeStyle=orthogonalEdgeStyle;rounded=0;orthogonalLoop=1;jettySize=auto;html=1;" edge="1" parent="1" source="JJN54RWJEOPsRqqfcyb3-6" target="JJN54RWJEOPsRqqfcyb3-8">
          <mxGeometry relative="1" as="geometry" />
        </mxCell>
        <mxCell id="JJN54RWJEOPsRqqfcyb3-6" value="&lt;p&gt;&amp;lt;&amp;lt;organisation-service&amp;gt;&amp;gt;&lt;/p&gt;&lt;p&gt;RestController&lt;/p&gt;" style="shape=rect;html=1;overflow=fill;whiteSpace=wrap;align=center;fontStyle=1" vertex="1" parent="1">
          <mxGeometry x="490" y="1330" width="160" height="80" as="geometry" />
        </mxCell>
        <mxCell id="JJN54RWJEOPsRqqfcyb3-12" value="" style="edgeStyle=orthogonalEdgeStyle;rounded=0;orthogonalLoop=1;jettySize=auto;html=1;" edge="1" parent="1" target="JJN54RWJEOPsRqqfcyb3-10">
          <mxGeometry relative="1" as="geometry">
            <mxPoint x="570" y="1750" as="sourcePoint" />
            <Array as="points">
              <mxPoint x="570" y="1680" />
              <mxPoint x="570" y="1680" />
            </Array>
          </mxGeometry>
        </mxCell>
        <mxCell id="JJN54RWJEOPsRqqfcyb3-19" value="" style="edgeStyle=orthogonalEdgeStyle;rounded=0;orthogonalLoop=1;jettySize=auto;html=1;" edge="1" parent="1" source="JJN54RWJEOPsRqqfcyb3-8" target="JJN54RWJEOPsRqqfcyb3-17">
          <mxGeometry relative="1" as="geometry" />
        </mxCell>
        <mxCell id="JJN54RWJEOPsRqqfcyb3-8" value="&lt;p&gt;&amp;lt;&amp;lt;organisation-service&amp;gt;&amp;gt;&lt;/p&gt;&lt;p&gt;Service&lt;/p&gt;" style="shape=rect;html=1;overflow=fill;whiteSpace=wrap;align=center;fontStyle=1" vertex="1" parent="1">
          <mxGeometry x="490" y="1470" width="160" height="80" as="geometry" />
        </mxCell>
        <mxCell id="JJN54RWJEOPsRqqfcyb3-10" value="" style="shape=cylinder3;whiteSpace=wrap;html=1;boundedLbl=1;backgroundOutline=1;size=15;" vertex="1" parent="1">
          <mxGeometry x="540" y="1830" width="60" height="80" as="geometry" />
        </mxCell>
        <mxCell id="JJN54RWJEOPsRqqfcyb3-11" value="organisation" style="text;html=1;strokeColor=none;fillColor=none;align=center;verticalAlign=middle;whiteSpace=wrap;rounded=0;" vertex="1" parent="1">
          <mxGeometry x="550" y="1769" width="40" height="20" as="geometry" />
        </mxCell>
        <mxCell id="JJN54RWJEOPsRqqfcyb3-17" value="&lt;p&gt;&amp;lt;&amp;lt;organisation-service&amp;gt;&amp;gt;&lt;/p&gt;&lt;p&gt;repository&lt;/p&gt;" style="shape=rect;html=1;overflow=fill;whiteSpace=wrap;align=center;fontStyle=1" vertex="1" parent="1">
          <mxGeometry x="490" y="1600" width="160" height="80" as="geometry" />
        </mxCell>
        <mxCell id="JJN54RWJEOPsRqqfcyb3-20" value="desk-service" style="shape=folder;tabWidth=80;tabHeight=20;tabPosition=left;strokeWidth=1;html=1;whiteSpace=wrap;align=center;fontSize=12;fontStyle=1" vertex="1" parent="1">
          <mxGeometry x="950" y="1400" width="160" height="90" as="geometry" />
        </mxCell>
        <mxCell id="JJN54RWJEOPsRqqfcyb3-22" value="Queue" style="shape=folder;tabWidth=80;tabHeight=20;tabPosition=left;strokeWidth=1;html=1;whiteSpace=wrap;align=center;fontSize=12;fontStyle=1" vertex="1" parent="1">
          <mxGeometry x="687" y="1190" width="160" height="90" as="geometry" />
        </mxCell>
      </root>
    </mxGraphModel>
  </diagram>
</mxfile>
